<?xml version="1.0" encoding="utf-8"?>
<!-- Generator: Adobe Illustrator 19.0.0, SVG Export Plug-In . SVG Version: 6.00 Build 0)  -->
<svg version="1.1" id="Capa_1" xmlns="http://www.w3.org/2000/svg" xmlns:xlink="http://www.w3.org/1999/xlink" x="0px" y="0px"
	 viewBox="0 0 100 100" style="enable-background:new 0 0 100 100;" xml:space="preserve">
<g id="XMLID_348_">
	<path id="XMLID_350_" d="M3.2,48.2c0-8.7,2.3-16.8,6.4-23.9C3.6,32.2,0,42.1,0,52.8C0,78.8,21.2,100,47.4,100
		c12.2,0,23.4-4.6,31.8-12.2c-7.8,5.4-17.4,8.6-27.6,8.6C24.9,96.4,3.2,74.9,3.2,48.2z"/>
	<path id="XMLID_349_" d="M51.6,0c-18,0-33.7,9.8-42,24.3c3.8-5,8.6-9.3,14.1-12.5c7.6-5.4,16.8-8.6,26.8-8.6
		c25.5,0,46.2,20.6,46.2,46c0,8-2.1,15.5-5.7,22.1c-2.7,6.3-6.8,11.9-11.8,16.4C91.8,79.1,100,64.6,100,48.2C100,21.6,78.3,0,51.6,0
		z"/>
</g>
</svg>
