<?xml version="1.0" encoding="utf-8"?>
<!-- Generator: Adobe Illustrator 19.0.0, SVG Export Plug-In . SVG Version: 6.00 Build 0)  -->
<svg version="1.1" id="Capa_1" xmlns="http://www.w3.org/2000/svg" xmlns:xlink="http://www.w3.org/1999/xlink" x="0px" y="0px"
	 viewBox="0 0 266 23.4" style="enable-background:new 0 0 266 23.4;" xml:space="preserve">
<g id="XMLID_185_">
	<g id="XMLID_225_">
		<path id="XMLID_303_" d="M128.4,9.6c0-1.6,1-2.7,2.6-2.7c1.1,0,2.3,0.6,3.4,1.7l1.7-1.5c-1.3-1.7-3-2.5-5-2.5
			c-3.1,0-5.2,2-5.2,4.9c0,3.4,3,4.5,5.4,5.4c2.1,0.8,3.2,1.8,3.2,3c0,2.1-1.1,3.2-3.3,3.2c-1.9,0-3.4-1.2-4.5-3.6l-2.1,1.2
			c1.2,2.9,3.6,4.6,6.6,4.6c3.7,0,5.9-2.1,5.9-5.7c0-2.9-2.6-4-5-5C130.2,12,128.4,11.3,128.4,9.6z"/>
		<path id="XMLID_279_" d="M251.9,4.7l-2.6,0v18.7l2.6,0v-7.8c0-4.5,3.6-8.2,8.1-8.3V4.7c-2.9,0.1-5.5,1.2-7.6,3.3l-0.5,0.5V4.7z"/>
		<polygon id="XMLID_277_" points="204.6,20.6 204.6,23.4 217.9,23.4 217.9,20.8 207.8,20.8 217.9,7.5 217.9,4.7 204.6,4.7 
			204.6,7.3 214.7,7.3 		"/>
		<path id="XMLID_267_" d="M152.7,4.7c-3.3,0-5.8,1.8-6.4,4.6l2.5,0c0.7-1.5,2.1-2.3,4-2.3c2.9,0,4.4,1.5,4.4,4.2V12l-3.4,0
			c-5.3,0-8.3,2.2-8.3,5.9c0,3.5,2,5.5,5.6,5.5c2.5,0,4.5-0.8,6.1-2.6v2.6l2.6,0V11.6C159.7,7.1,157.2,4.7,152.7,4.7z M157.1,15
			c0,2.1-0.6,3.6-1.7,4.6c-1.1,1-2.4,1.5-3.9,1.5c-2.1,0-3.4-1.2-3.4-3.2c0-2.3,2-3.7,5.4-3.7l3.7,0V15z"/>
		<path id="XMLID_233_" d="M232.6,4.7c-3.3,0-5.8,1.8-6.4,4.6l2.5,0c0.7-1.5,2.1-2.3,4-2.3c2.9,0,4.4,1.5,4.4,4.2V12l-3.4,0
			c-5.3,0-8.3,2.2-8.3,5.9c0,3.5,2,5.5,5.6,5.5c2.5,0,4.5-0.8,6.1-2.6v2.6l2.6,0V11.6C239.6,7.1,237.1,4.7,232.6,4.7z M237,15
			c0,2.1-0.6,3.6-1.7,4.6c-1.1,1-2.4,1.5-3.9,1.5c-2.1,0-3.4-1.2-3.4-3.2c0-2.3,2-3.7,5.4-3.7l3.7,0V15z"/>
		<rect id="XMLID_230_" x="169.8" y="0" width="2.6" height="23.4"/>
		<path id="XMLID_227_" d="M189.1,4.7c-3.3,0-5.8,1.8-6.4,4.6l2.5,0c0.7-1.5,2.1-2.3,4-2.3c2.9,0,4.4,1.5,4.4,4.2V12l-3.4,0
			c-5.3,0-8.3,2.2-8.3,5.9c0,3.5,2,5.5,5.6,5.5c2.5,0,4.5-0.8,6.1-2.6v2.6l2.6,0V11.6C196.1,7.1,193.6,4.7,189.1,4.7z M193.5,15
			c0,2.1-0.6,3.6-1.7,4.6c-1.1,1-2.4,1.5-3.9,1.5c-2.1,0-3.4-1.2-3.4-3.2c0-2.3,2-3.7,5.4-3.7l3.7,0V15z"/>
	</g>
	<g id="XMLID_186_">
		<path id="XMLID_223_" d="M22.6,11.6l0,11.8l2.6,0l0-11.8c0-3.8-3.1-7-7-7c-2.1,0-4.1,0.9-5.4,2.6l-0.2,0.3l-0.2-0.3
			C11,5.6,9.1,4.7,7,4.7c-1.4,0-2.7,0.4-3.9,1.2L2.6,6.2l0-1.5L0,4.7l0,18.7l2.6,0l0-11.8c0-2.4,2-4.3,4.3-4.3
			c2.4,0,4.3,1.9,4.3,4.3l0,11.8l2.6,0l0-11.8c0-2.4,2-4.3,4.3-4.3C20.6,7.3,22.6,9.3,22.6,11.6z"/>
		<path id="XMLID_220_" d="M68,4.7c-2.9,0.1-5.5,1.2-7.6,3.3L60,8.5V4.7l-2.6,0l0,18.7l2.6,0l0-7.8c0-4.5,3.6-8.2,8.1-8.3V4.7z"/>
		<path id="XMLID_213_" d="M96,4.7c-3.3,0-5.8,1.8-6.4,4.6l2.5,0C92.7,7.8,94.2,7,96,7c2.9,0,4.4,1.5,4.4,4.2V12L97,12
			c-5.3,0-8.3,2.2-8.3,5.9c0,3.5,2,5.5,5.6,5.5c2.5,0,4.5-0.8,6.1-2.6v2.6l2.6,0V11.6C103,7.1,100.5,4.7,96,4.7z M100.4,15
			c0,2.1-0.6,3.6-1.7,4.6c-1.1,1-2.4,1.5-3.9,1.5c-2.1,0-3.4-1.2-3.4-3.2c0-2.3,2-3.7,5.4-3.7l3.7,0V15z"/>
		<rect id="XMLID_211_" x="76.3" y="4.7" width="2.6" height="18.7"/>
		<path id="XMLID_207_" d="M40.9,4.7c-3.3,0-5.8,1.8-6.4,4.6l2.5,0c0.7-1.5,2.1-2.3,4-2.3c2.9,0,4.4,1.5,4.4,4.2V12l-3.4,0
			c-5.3,0-8.3,2.2-8.3,5.9c0,3.5,2,5.5,5.6,5.5c2.5,0,4.5-0.8,6.1-2.6v2.6l2.6,0l0-11.9C47.9,7.1,45.4,4.7,40.9,4.7z M45.3,15
			c0,2.1-0.6,3.6-1.7,4.6c-1.1,1-2.4,1.5-3.9,1.5c-2.1,0-3.4-1.2-3.4-3.2c0-2.3,2-3.7,5.4-3.7l3.7,0V15z"/>
		<polygon id="XMLID_206_" points="81.7,0 79.2,0 76.3,2.8 78.9,2.8 		"/>
	</g>
</g>
</svg>
