<?xml version="1.0" encoding="utf-8"?>
<!-- Generator: Adobe Illustrator 19.0.0, SVG Export Plug-In . SVG Version: 6.00 Build 0)  -->
<svg version="1.1" id="Capa_1" xmlns="http://www.w3.org/2000/svg" xmlns:xlink="http://www.w3.org/1999/xlink" x="0px" y="0px"
	 viewBox="0 0 90 40.5" style="enable-background:new 0 0 90 40.5;" xml:space="preserve">
<g id="XMLID_285_">
	<path id="XMLID_319_" d="M15,7.7l0,7.8l1.8,0l0-7.8c0-2.5-2.1-4.6-4.6-4.6c-1.4,0-2.7,0.6-3.6,1.7L8.4,5L8.2,4.8
		C7.3,3.7,6,3.1,4.6,3.1c-0.9,0-1.8,0.3-2.6,0.8L1.8,4.1l0-1L0,3.1l0,12.4l1.8,0l0-7.9c0-1.6,1.3-2.8,2.9-2.8c1.6,0,2.9,1.3,2.9,2.9
		l0,7.8l1.8,0l0-7.8c0-1.6,1.3-2.9,2.9-2.9C13.7,4.9,15,6.2,15,7.7z"/>
	<path id="XMLID_318_" d="M45.2,3.1c-1.9,0-3.7,0.8-5,2.2l-0.3,0.3V3.1l-1.8,0l0,12.4l1.8,0l0-5.2c0-3,2.4-5.4,5.3-5.5V3.1z"/>
	<path id="XMLID_317_" d="M2.6,31.3c0-1.1,0.7-1.8,1.7-1.8c0.8,0,1.5,0.4,2.3,1.2l1.1-1c-0.8-1.1-2-1.7-3.3-1.7
		c-2,0-3.5,1.3-3.5,3.2c0,2.2,2,3,3.6,3.6c1.4,0.5,2.1,1.2,2.1,2c0,1.4-0.8,2.1-2.2,2.1c-1.3,0-2.3-0.8-3-2.4L0,37.4
		c0.8,2,2.4,3.1,4.4,3.1c2.5,0,3.9-1.4,3.9-3.8c0-1.9-1.7-2.7-3.3-3.3C3.8,32.9,2.6,32.4,2.6,31.3z"/>
	<path id="XMLID_316_" d="M84.7,28l-1.8,0l0,12.4l1.8,0v-5.2c0-3,2.4-5.4,5.3-5.5V28c-1.9,0-3.7,0.8-5,2.2l-0.3,0.3V28z"/>
	<polygon id="XMLID_315_" points="53.2,38.6 53.2,40.5 62,40.5 62,38.7 55.3,38.7 62,29.9 62,28 53.2,28 53.2,29.8 59.9,29.8 	"/>
	<path id="XMLID_312_" d="M63.7,3.1c-2.2,0-3.9,1.2-4.3,3.1l1.6,0c0.5-1,1.4-1.6,2.6-1.6c1.9,0,3,1,3,2.8V8l-2.3,0
		c-3.5,0-5.5,1.4-5.5,3.9c0,2.3,1.4,3.6,3.7,3.6c1.6,0,3-0.5,4.1-1.7v1.7l1.7,0V7.7C68.4,4.7,66.8,3.1,63.7,3.1z M66.7,10
		c0,1.4-0.4,2.4-1.1,3.1c-0.7,0.6-1.6,1-2.6,1c-1.4,0-2.3-0.8-2.3-2.1c0-1.5,1.3-2.4,3.6-2.4l2.5,0V10z"/>
	<path id="XMLID_309_" d="M18.7,28c-2.2,0-3.9,1.2-4.3,3.1l1.6,0c0.5-1,1.4-1.6,2.6-1.6c1.9,0,3,1,3,2.8v0.5l-2.3,0
		c-3.5,0-5.5,1.4-5.5,3.9c0,2.3,1.4,3.6,3.7,3.6c1.6,0,3-0.5,4.1-1.7v1.7h1.7v-7.9C23.4,29.6,21.7,28,18.7,28z M21.7,34.9
		c0,1.4-0.4,2.4-1.1,3.1c-0.7,0.6-1.6,1-2.6,1c-1.4,0-2.3-0.8-2.3-2.1c0-1.5,1.3-2.4,3.6-2.4l2.5,0V34.9z"/>
	<path id="XMLID_304_" d="M71.8,28c-2.2,0-3.9,1.2-4.3,3.1l1.6,0c0.5-1,1.4-1.6,2.6-1.6c1.9,0,3,1,3,2.8v0.5l-2.3,0
		c-3.5,0-5.5,1.4-5.5,3.9c0,2.3,1.4,3.6,3.7,3.6c1.6,0,3-0.5,4.1-1.7v1.7l1.7,0v-7.9C76.5,29.6,74.8,28,71.8,28z M74.8,34.9
		c0,1.4-0.4,2.4-1.1,3.1c-0.7,0.6-1.6,1-2.6,1c-1.4,0-2.3-0.8-2.3-2.1c0-1.5,1.3-2.4,3.6-2.4l2.5,0V34.9z"/>
	<rect id="XMLID_302_" x="50.7" y="3.1" width="1.7" height="12.4"/>
	<rect id="XMLID_301_" x="30.1" y="24.9" width="1.7" height="15.6"/>
	<path id="XMLID_297_" d="M27.1,3.1c-2.2,0-3.9,1.2-4.3,3.1l1.6,0c0.5-1,1.4-1.6,2.6-1.6c1.9,0,3,1,3,2.8V8l-2.3,0
		c-3.5,0-5.5,1.4-5.5,3.9c0,2.3,1.4,3.6,3.7,3.6c1.6,0,3-0.5,4.1-1.7v1.7l1.7,0l0-7.9C31.8,4.7,30.2,3.1,27.1,3.1z M30.1,10
		c0,1.4-0.4,2.4-1.1,3.1c-0.7,0.6-1.6,1-2.6,1c-1.4,0-2.3-0.8-2.3-2.1c0-1.5,1.3-2.4,3.6-2.4l2.5,0V10z"/>
	<path id="XMLID_291_" d="M42.9,28c-2.2,0-3.9,1.2-4.3,3.1l1.6,0c0.5-1,1.4-1.6,2.6-1.6c1.9,0,3,1,3,2.8v0.5l-2.3,0
		c-3.5,0-5.5,1.4-5.5,3.9c0,2.3,1.4,3.6,3.7,3.6c1.6,0,3-0.5,4.1-1.7v1.7l1.7,0v-7.9C47.6,29.6,45.9,28,42.9,28z M45.8,34.9
		c0,1.4-0.4,2.4-1.1,3.1c-0.7,0.6-1.6,1-2.6,1c-1.4,0-2.3-0.8-2.3-2.1c0-1.5,1.3-2.4,3.6-2.4l2.5,0V34.9z"/>
	<polygon id="XMLID_287_" points="54.3,0 52.6,0 50.7,1.9 52.4,1.9 	"/>
</g>
</svg>
